<svg width="441" height="212" viewBox="0 0 441 212" fill="none" xmlns="http://www.w3.org/2000/svg">
<g filter="url(#filter0_d_3_22)">
<path d="M232.5 190H101.5C50.4137 190 9 148.586 9 97.5C9 46.4137 50.4137 5 101.5 5H232.5" stroke="url(#paint0_radial_3_22)" stroke-width="10" stroke-linecap="round"/>
<path d="M235.5 103.5C268.833 134.333 334.8 196.8 332 200" stroke="white" stroke-width="10"/>
<g filter="url(#filter1_d_3_22)">
<path d="M342.172 157.953C342.172 157.922 342.188 157.859 342.219 157.766C342.25 157.703 342.297 157.547 342.359 157.297C341.391 158.547 340.406 159.797 339.406 161.047C338.406 162.297 337.438 163.422 336.5 164.422C335.562 165.391 334.688 166.188 333.875 166.812C333.094 167.438 332.438 167.75 331.906 167.75C331.688 167.75 331.297 167.656 330.734 167.469C330.172 167.281 329.609 166.984 329.047 166.578C328.453 166.141 327.922 165.594 327.453 164.938C326.984 164.281 326.734 163.5 326.703 162.594C326.703 162.281 326.906 161.516 327.312 160.297C327.688 159.078 328.188 157.609 328.812 155.891C329.406 154.141 330.047 152.266 330.734 150.266C331.422 148.234 332.062 146.266 332.656 144.359C333.281 142.422 333.781 140.641 334.156 139.016C334.562 137.391 334.766 136.125 334.766 135.219C334.766 134.969 334.734 134.75 334.672 134.562C334.609 134.375 334.547 134.219 334.484 134.094C334.391 133.969 334.297 133.859 334.203 133.766V133.109C334.891 132.672 335.719 132.312 336.688 132.031C337.656 131.719 338.594 131.484 339.5 131.328C340.531 131.141 341.609 131 342.734 130.906L342.922 131.188C342.703 132.844 342.328 134.688 341.797 136.719C341.266 138.719 340.672 140.781 340.016 142.906C339.359 145 338.672 147.078 337.953 149.141C337.266 151.203 336.625 153.109 336.031 154.859C335.438 156.609 334.953 158.156 334.578 159.5C334.203 160.812 334.016 161.781 334.016 162.406C334.016 162.844 334.141 163.062 334.391 163.062C334.609 163.062 334.938 162.891 335.375 162.547C335.812 162.172 336.312 161.703 336.875 161.141C337.469 160.547 338.094 159.891 338.75 159.172C339.406 158.453 340.062 157.719 340.719 156.969C341.375 156.188 341.984 155.453 342.547 154.766C343.141 154.047 343.656 153.422 344.094 152.891C344.594 151.484 345.141 149.922 345.734 148.203C346.328 146.484 346.891 144.812 347.422 143.188C347.984 141.562 348.453 140.062 348.828 138.688C349.234 137.312 349.484 136.25 349.578 135.5C349.641 135.156 349.641 134.891 349.578 134.703C349.516 134.484 349.438 134.297 349.344 134.141C349.219 133.984 349.094 133.859 348.969 133.766V133.109C349.688 132.672 350.531 132.312 351.5 132.031C352.469 131.719 353.406 131.484 354.312 131.328C355.344 131.141 356.422 131 357.547 130.906L357.734 131.188C357.391 132.844 356.922 134.641 356.328 136.578C355.766 138.516 355.141 140.5 354.453 142.531C353.797 144.531 353.125 146.516 352.438 148.484C351.781 150.422 351.172 152.234 350.609 153.922C350.078 155.609 349.641 157.109 349.297 158.422C348.953 159.703 348.781 160.672 348.781 161.328C348.781 161.734 348.812 162.016 348.875 162.172C348.969 162.328 349.172 162.406 349.484 162.406C349.797 162.375 350.297 162.203 350.984 161.891C351.703 161.547 352.516 161.047 353.422 160.391C354.328 159.734 355.297 158.938 356.328 158C357.391 157.031 358.438 155.906 359.469 154.625L360.5 155.562C359.188 157.219 357.719 158.797 356.094 160.297C354.469 161.766 352.844 163.062 351.219 164.188C349.625 165.312 348.125 166.203 346.719 166.859C345.312 167.516 344.188 167.844 343.344 167.844C343.188 167.844 342.984 167.781 342.734 167.656C342.484 167.531 342.234 167.328 341.984 167.047C341.734 166.766 341.516 166.391 341.328 165.922C341.141 165.422 341.047 164.797 341.047 164.047C341.047 163.672 341.094 163.188 341.188 162.594C341.281 162 341.391 161.406 341.516 160.812C341.641 160.188 341.766 159.625 341.891 159.125C342.016 158.594 342.109 158.203 342.172 157.953ZM354.734 187.25C354.172 187.5 353.547 187.672 352.859 187.766C352.141 187.891 351.422 187.969 350.703 188C349.984 188.062 349.312 188.078 348.688 188.047C348.031 188.047 347.484 188.047 347.047 188.047L346.766 187.531C347.266 186.531 347.938 184.953 348.781 182.797C349.594 180.672 350.531 178.156 351.594 175.25C352.625 172.375 353.734 169.234 354.922 165.828C356.078 162.422 357.266 158.938 358.484 155.375C359.078 153.562 359.703 151.656 360.359 149.656C361.016 147.656 361.609 145.766 362.141 143.984C362.672 142.203 363.109 140.641 363.453 139.297C363.828 137.922 364.016 136.984 364.016 136.484C364.016 136.141 363.969 135.844 363.875 135.594C363.812 135.312 363.734 135.078 363.641 134.891C363.516 134.672 363.391 134.469 363.266 134.281V133.578C363.953 133.141 364.781 132.75 365.75 132.406C366.719 132.062 367.656 131.781 368.562 131.562C369.594 131.312 370.672 131.094 371.797 130.906L371.984 131.188C371.984 131.5 371.938 131.953 371.844 132.547C371.75 133.109 371.625 133.75 371.469 134.469C371.344 135.188 371.188 135.938 371 136.719C370.844 137.469 370.672 138.188 370.484 138.875C371.391 137.625 372.25 136.453 373.062 135.359C373.875 134.234 374.656 133.266 375.406 132.453C376.156 131.609 376.859 130.953 377.516 130.484C378.203 129.984 378.859 129.734 379.484 129.734C379.891 129.734 380.375 129.906 380.938 130.25C381.5 130.562 382.031 130.984 382.531 131.516C383.062 132.016 383.5 132.594 383.844 133.25C384.219 133.875 384.406 134.5 384.406 135.125C384.406 136.219 384.281 137.422 384.031 138.734C383.812 140.016 383.516 141.312 383.141 142.625C382.766 143.906 382.359 145.172 381.922 146.422C381.484 147.672 381.062 148.812 380.656 149.844C380.25 150.844 379.875 151.703 379.531 152.422C379.219 153.141 379.016 153.609 378.922 153.828C378.016 155.891 376.938 157.766 375.688 159.453C374.469 161.141 373.203 162.594 371.891 163.812C370.578 165.031 369.281 165.984 368 166.672C366.75 167.328 365.656 167.656 364.719 167.656C363.75 167.656 363.031 167.547 362.562 167.328C362.094 167.109 361.688 166.875 361.344 166.625C360.875 168.031 360.406 169.453 359.938 170.891C359.438 172.328 358.922 173.844 358.391 175.438C357.859 177.062 357.297 178.828 356.703 180.734C356.109 182.672 355.453 184.844 354.734 187.25ZM376.531 134.656C376.219 134.656 375.812 134.922 375.312 135.453C374.844 135.953 374.297 136.625 373.672 137.469C373.047 138.281 372.359 139.203 371.609 140.234C370.891 141.266 370.125 142.281 369.312 143.281C368.906 144.594 368.391 146.188 367.766 148.062C367.172 149.906 366.547 151.812 365.891 153.781C365.266 155.719 364.656 157.609 364.062 159.453C363.469 161.266 362.984 162.797 362.609 164.047C362.891 164.391 363.25 164.688 363.688 164.938C364.125 165.156 364.594 165.266 365.094 165.266C365.875 165.266 366.703 164.672 367.578 163.484C368.484 162.266 369.375 160.719 370.25 158.844C371.156 156.969 372.016 154.906 372.828 152.656C373.672 150.375 374.406 148.172 375.031 146.047C375.656 143.922 376.156 142.016 376.531 140.328C376.906 138.609 377.094 137.359 377.094 136.578C377.094 136.453 377.078 136.297 377.047 136.109C377.047 135.891 377.016 135.672 376.953 135.453C376.922 135.234 376.875 135.047 376.812 134.891C376.75 134.734 376.656 134.656 376.531 134.656ZM403.344 114.406C404 114.406 404.594 114.688 405.125 115.25C405.656 115.781 405.922 116.547 405.922 117.547C405.922 118.516 405.703 119.453 405.266 120.359C404.859 121.234 404.344 122.016 403.719 122.703C403.094 123.391 402.391 123.938 401.609 124.344C400.859 124.75 400.156 124.953 399.5 124.953C399.219 124.953 398.906 124.922 398.562 124.859C398.25 124.766 397.953 124.609 397.672 124.391C397.391 124.141 397.156 123.812 396.969 123.406C396.781 123 396.688 122.484 396.688 121.859C396.688 120.953 396.875 120.062 397.25 119.188C397.656 118.281 398.172 117.484 398.797 116.797C399.453 116.078 400.172 115.5 400.953 115.062C401.734 114.625 402.531 114.406 403.344 114.406ZM401.047 131.188C400.703 131.656 400.281 132.406 399.781 133.438C399.312 134.469 398.797 135.703 398.234 137.141C397.672 138.547 397.094 140.078 396.5 141.734C395.906 143.391 395.312 145.078 394.719 146.797C394.156 148.484 393.625 150.141 393.125 151.766C392.625 153.359 392.172 154.828 391.766 156.172C391.391 157.484 391.094 158.609 390.875 159.547C390.656 160.453 390.547 161.047 390.547 161.328C390.547 161.922 390.781 162.219 391.25 162.219C391.625 162.188 392.156 162.016 392.844 161.703C393.531 161.391 394.312 160.922 395.188 160.297C396.094 159.672 397.078 158.875 398.141 157.906C399.203 156.938 400.297 155.781 401.422 154.438L402.453 155.375C401.078 157.125 399.578 158.75 397.953 160.25C396.359 161.719 394.766 163.016 393.172 164.141C391.609 165.234 390.125 166.094 388.719 166.719C387.312 167.344 386.141 167.656 385.203 167.656C384.953 167.656 384.719 167.562 384.5 167.375C384.281 167.219 384.094 167.062 383.938 166.906C383.406 166.281 383.125 165.734 383.094 165.266C383.031 164.797 383 164.312 383 163.812C383 163.094 383.203 161.891 383.609 160.203C383.984 158.516 384.469 156.609 385.062 154.484C385.656 152.328 386.328 150.078 387.078 147.734C387.797 145.391 388.5 143.219 389.188 141.219C389.906 139.219 390.547 137.516 391.109 136.109C391.703 134.703 392.156 133.859 392.469 133.578C393.094 133.016 393.875 132.562 394.812 132.219C395.75 131.844 396.672 131.562 397.578 131.375C398.609 131.156 399.703 131 400.859 130.906L401.047 131.188ZM428 108.922C428 108.234 427.812 107.766 427.438 107.516C427.094 107.234 426.656 107.109 426.125 107.141C425.594 107.172 425.016 107.297 424.391 107.516C423.766 107.703 423.188 107.922 422.656 108.172L422.047 106.906C425.266 105.344 427.875 104.25 429.875 103.625C431.906 103 433.297 102.688 434.047 102.688C434.266 102.688 434.516 102.781 434.797 102.969C435.109 103.125 435.391 103.359 435.641 103.672C435.891 103.984 436.109 104.344 436.297 104.75C436.484 105.125 436.578 105.516 436.578 105.922C436.578 106.172 436.219 107.219 435.5 109.062C434.781 110.875 433.922 113.266 432.922 116.234C432.328 117.984 431.672 119.906 430.953 122C430.234 124.094 429.469 126.281 428.656 128.562C427.875 130.812 427.078 133.109 426.266 135.453C425.484 137.797 424.719 140.078 423.969 142.297C423.219 144.516 422.5 146.641 421.812 148.672C421.156 150.672 420.578 152.469 420.078 154.062C419.609 155.656 419.234 157.016 418.953 158.141C418.672 159.234 418.531 159.984 418.531 160.391C418.531 160.953 418.75 161.234 419.188 161.234C419.531 161.203 420.047 161.031 420.734 160.719C421.422 160.375 422.203 159.875 423.078 159.219C423.984 158.562 424.953 157.766 425.984 156.828C427.047 155.859 428.109 154.734 429.172 153.453L430.203 154.438C428.828 156.094 427.359 157.703 425.797 159.266C424.234 160.797 422.688 162.156 421.156 163.344C419.656 164.531 418.234 165.484 416.891 166.203C415.578 166.922 414.484 167.281 413.609 167.281C413.172 167.281 412.812 167.094 412.531 166.719C412.25 166.312 412.016 165.812 411.828 165.219C411.672 164.625 411.562 164 411.5 163.344C411.438 162.688 411.406 162.078 411.406 161.516C411.406 161.266 411.438 160.984 411.5 160.672C411.594 160.328 411.688 159.906 411.781 159.406C410.75 160.5 409.625 161.547 408.406 162.547C407.219 163.516 406.062 164.375 404.938 165.125C403.844 165.844 402.859 166.422 401.984 166.859C401.078 167.266 400.438 167.469 400.062 167.469C399.719 167.469 399.453 167.312 399.266 167C399.047 166.719 398.891 166.375 398.797 165.969C398.672 165.531 398.594 165.094 398.562 164.656C398.5 164.188 398.469 163.781 398.469 163.438C398.469 162.344 398.594 161.094 398.844 159.688C399.094 158.281 399.406 156.828 399.781 155.328C400.125 153.828 400.531 152.359 401 150.922C401.438 149.453 401.859 148.125 402.266 146.938C402.672 145.719 403.031 144.703 403.344 143.891C403.656 143.047 403.875 142.5 404 142.25C404.562 141.031 405.422 139.812 406.578 138.594C407.734 137.375 409.094 136.188 410.656 135.031C412.219 133.875 413.922 132.781 415.766 131.75C417.641 130.688 419.547 129.734 421.484 128.891C422.359 126.328 423.188 123.906 423.969 121.625C424.781 119.312 425.484 117.266 426.078 115.484C426.672 113.703 427.141 112.234 427.484 111.078C427.828 109.922 428 109.203 428 108.922ZM412.297 156.359C412.859 154.609 413.469 152.734 414.125 150.734C414.781 148.703 415.453 146.625 416.141 144.5C416.859 142.375 417.594 140.219 418.344 138.031C419.094 135.844 419.828 133.688 420.547 131.562C419.672 131.812 418.797 132.172 417.922 132.641C417.078 133.078 416.406 133.484 415.906 133.859C415.094 134.484 414.266 135.547 413.422 137.047C412.609 138.516 411.828 140.188 411.078 142.062C410.328 143.906 409.625 145.828 408.969 147.828C408.344 149.828 407.797 151.703 407.328 153.453C406.859 155.172 406.484 156.641 406.203 157.859C405.953 159.047 405.828 159.75 405.828 159.969C405.828 160.219 405.844 160.453 405.875 160.672C405.938 160.859 406.094 160.953 406.344 160.953C406.594 160.953 406.953 160.828 407.422 160.578C407.891 160.328 408.391 160 408.922 159.594C409.484 159.156 410.062 158.656 410.656 158.094C411.25 157.531 411.797 156.953 412.297 156.359Z" fill="white"/>
</g>
<circle cx="238" cy="98" r="92" stroke="white" stroke-width="10"/>
<path d="M12.5 96.5H140.5" stroke="#00F0FF"/>
<path d="M13.5 74.5H141.5" stroke="#00F0FF"/>
<path d="M13.5 118.5H140.5" stroke="#00F0FF"/>
<path d="M22 51H155" stroke="#00F0FF"/>
<path d="M22 145H152.5" stroke="#00F0FF"/>
</g>
<defs>
<filter id="filter0_d_3_22" x="0" y="0" width="440.578" height="211.293" filterUnits="userSpaceOnUse" color-interpolation-filters="sRGB">
<feFlood flood-opacity="0" result="BackgroundImageFix"/>
<feColorMatrix in="SourceAlpha" type="matrix" values="0 0 0 0 0 0 0 0 0 0 0 0 0 0 0 0 0 0 127 0" result="hardAlpha"/>
<feOffset dy="4"/>
<feGaussianBlur stdDeviation="2"/>
<feComposite in2="hardAlpha" operator="out"/>
<feColorMatrix type="matrix" values="0 0 0 0 0 0 0 0 0 0 0 0 0 0 0 0 0 0 0.25 0"/>
<feBlend mode="normal" in2="BackgroundImageFix" result="effect1_dropShadow_3_22"/>
<feBlend mode="normal" in="SourceGraphic" in2="effect1_dropShadow_3_22" result="shape"/>
</filter>
<filter id="filter1_d_3_22" x="322.703" y="102.688" width="117.875" height="93.4062" filterUnits="userSpaceOnUse" color-interpolation-filters="sRGB">
<feFlood flood-opacity="0" result="BackgroundImageFix"/>
<feColorMatrix in="SourceAlpha" type="matrix" values="0 0 0 0 0 0 0 0 0 0 0 0 0 0 0 0 0 0 127 0" result="hardAlpha"/>
<feOffset dy="4"/>
<feGaussianBlur stdDeviation="2"/>
<feComposite in2="hardAlpha" operator="out"/>
<feColorMatrix type="matrix" values="0 0 0 0 0 0 0 0 0 0 0 0 0 0 0 0 0 0 0.25 0"/>
<feBlend mode="normal" in2="BackgroundImageFix" result="effect1_dropShadow_3_22"/>
<feBlend mode="normal" in="SourceGraphic" in2="effect1_dropShadow_3_22" result="shape"/>
</filter>
<radialGradient id="paint0_radial_3_22" cx="0" cy="0" r="1" gradientUnits="userSpaceOnUse" gradientTransform="translate(120.75 97.5) rotate(90) scale(92.5 111.75)">
<stop offset="0.66104" stop-color="#A6E4FF"/>
<stop offset="1" stop-color="#00F0FF"/>
</radialGradient>
</defs>
</svg>
