<?xml version="1.0"?>
<svg xmlns:rdf="http://www.w3.org/1999/02/22-rdf-syntax-ns#" xmlns="http://www.w3.org/2000/svg" xmlns:cc="http://web.resource.org/cc/" xmlns:xlink="http://www.w3.org/1999/xlink" xmlns:dc="http://purl.org/dc/elements/1.1/" xmlns:svg="http://www.w3.org/2000/svg" id="svg2" viewBox="0 0 245.923 296.826" version="1.0">
  <g id="g3384" fill-rule="evenodd">
    <path id="path15" stroke="#000" stroke-width=".036" stroke-miterlimit="10" d="m218.94 7.8l19.55 28.512c-1.19 2.771-2.77 5.148-4.75 7.416-2.05 2.232-4.46 4.068-7.38 5.796 5.94 10.8 10.37 21.276 13.72 32.256 3.16 10.8 5.25 19.55 5.83 32.76 0.54 13.18 0.25 31.03-2.67 45.94-3.06 14.83-7.74 28-15.3 42.3-7.63 14.18-15.73 29.66-30.13 42.26-14.65 12.49-33.12 23.04-56.52 32.22v7.38c-1.66 4-7.2 6.95-16.92 9-9.75 1.94-23.4 3.13-41.219 3.17l-82.944-238.29c-0.432-1.796-0.252-3.56 0.54-5.288 0.792-1.8 2.196-3.564 4.212-5.292-1.476-9.648-0.144-17.82 3.708-25.344 3.78-7.56 10.152-15.48 19.548-19.044 9.468-3.636 21.564-5.076 36.432-2.088 14.796 2.988 35.352 15.408 51.263 20.052 15.77 4.608 29.16 7.452 42.81 7.416 13.57-0.252 27.82-4.968 38.05-8.46 10.11-3.636 17.31-7.668 22.17-12.672zm-96.69 220.32l-76.071-168.01c3.672-1.262 5.436-3.062 5.292-5.834-0.216-2.736-2.34-6.3-6.372-10.548 1.188-4.14 3.384-6.48 6.876-6.876 3.42-0.504 5.364 0.864 13.752 4.248 8.388 3.312 22.356 11.556 35.933 15.84 13.53 4.284 29.62 7.452 44.38 9.504 14.66 1.98 28.59 2.592 42.77 2.124 5.4 8.064 8.35 18.324 9 31.176 0.58 12.856 0.61 29.196-5.29 45.436-6.12 16.09-18.83 36.75-30.64 50.72-11.88 13.9-24.76 24.44-39.63 32.22z"/>
    <path id="path17" d="m12.375 45.852c0.756 1.26 2.736 1.692 6.336 1.584 3.492-0.252 8.424-1.044 14.796-2.664 0.396-6.876 2.016-11.628 5.256-14.256 3.168-2.664 8.172-2.268 13.752-1.584 5.436 0.612 9.684 1.728 19.008 5.292 9.324 3.492 22.68 11.556 36.467 15.84 13.72 4.284 31.18 7.92 45.43 9.504 14.19 1.404 27.22 2.16 39.1-1.044 11.77-3.384 21.67-9.324 30.67-18.504l-8.46-19.008c-8.46 5.58-18.93 9.36-32.25 11.628-13.47 2.196-31.04 3.888-47.02 1.584-16.06-2.484-34.34-11.052-48.061-15.84-13.824-4.86-22.644-12.384-33.84-12.708-11.304-0.396-25.74 3.78-32.76 10.584-6.876 6.768-9.684 16.452-8.424 29.592z" stroke="#000" stroke-miterlimit="10" stroke-width=".036" fill="#fff"/>
    <path id="path19" d="m11.835 68.568l77.148 217.15c2.808 1.51 7.74 1.76 14.797 1.04 7.13-0.86 16.09-2.7 27.47-5.79l-95.115-216.65c-8.1 1.404-16.2 2.808-24.3 4.248z" stroke="#000" stroke-miterlimit="10" stroke-width=".036" fill="#fff"/>
    <path id="path21" d="m200.44 69.072c1.91-0.432 4.5-1.512 7.92-3.672 3.38-2.16 7.34-5.112 12.17-9 8.67 13.392 13.82 29.052 15.84 47.56 1.87 18.61 1.91 41.5-4.22 62.85-6.29 21.24-16.99 46.37-32.76 63.43-15.84 16.92-35.89 29.2-61.27 37.52l-12.7-30.64c16.16-9.47 29.77-19.15 41.22-29.59 11.34-10.44 20.37-19.55 26.96-32.76 6.44-13.47 10.94-28.69 12.13-46.51 1.12-17.82-0.65-37.228-5.29-59.188z" stroke="#000" stroke-miterlimit="10" stroke-width=".036" fill="#fff"/>
    <path id="path23" d="m8.127 52.188c3.132 0.648 6.3 1.044 9.504 1.044 3.168-0.036 5.472 0.036 9.54-1.044 4.032-1.152 8.604-3.096 14.256-5.832 3.132 2.412 4.716 4.428 4.752 6.336-0.036 1.836-1.62 3.42-4.752 4.752-4.428 1.692-9.36 2.88-14.796 3.708-5.508 0.756-11.448 1.116-17.964 1.08-3.132-2.232-4.716-4.176-4.752-5.832-0.144-1.692 1.26-3.096 4.212-4.212z" stroke="#000" stroke-miterlimit="10" stroke-width=".036" fill="#fff"/>
    <path id="path25" stroke="#000" stroke-width=".036" stroke-miterlimit="10" d="m49.347 77.028l20.088-38.592 4.752 2.124-22.212 41.724-2.628-5.256z"/>
    <path id="path27" stroke="#000" stroke-width=".036" stroke-miterlimit="10" d="m57.267 93.912l25.38-50.184 4.752 2.124-27.504 53.352-2.628-5.292z"/>
    <path id="path29" stroke="#000" stroke-width=".036" stroke-miterlimit="10" d="m66.267 111.88l31.176-60.773 4.757 2.124-33.305 63.939-2.628-5.29z"/>
    <path id="path31" stroke="#000" stroke-width=".036" stroke-miterlimit="10" d="m75.231 134.59l40.179-77.65 4.71 2.124-42.225 80.816-2.664-5.29z"/>
    <path id="path33" stroke="#000" stroke-width=".036" stroke-miterlimit="10" d="m84.735 155.72l46.515-95.072 4.75 2.088-48.601 98.284-2.664-5.3z"/>
    <path id="path35" stroke="#000" stroke-width=".036" stroke-miterlimit="10" d="m92.151 175.31l57.559-112.57 4.76 2.12-59.691 115.7-2.628-5.25z"/>
    <path id="path37" stroke="#000" stroke-width=".036" stroke-miterlimit="10" d="m102.7 199.07l71.85-134.75 4.76 2.124-73.95 137.88-2.66-5.25z"/>
    <path id="path39" d="m135.1 249.72c3.6 8.06 15.62 10.55 26.78 5.54 11.2-5.04 17.35-15.62 13.75-23.68-3.6-8.07-15.62-10.55-26.78-5.55-11.2 5.01-17.35 15.63-13.75 23.69zm5.4-2.3c2.59 5.79 11.27 7.59 19.33 3.99 8.07-3.63 12.49-11.27 9.9-17.06-2.63-5.83-11.27-7.63-19.33-4-8.06 3.6-12.49 11.23-9.9 17.07z"/>
    <path id="path41" d="m156.63 235.75c4.17 7.17 15.62 8.32 25.56 2.56 9.97-5.76 14.65-16.27 10.51-23.44-4.18-7.16-15.62-8.31-25.56-2.55-9.94 5.79-14.65 16.27-10.51 23.43zm4.82-2.66c2.99 5.15 11.27 5.97 18.43 1.83 7.17-4.17 10.55-11.73 7.56-16.88-2.98-5.18-11.26-6.01-18.43-1.84-7.16 4.14-10.55 11.7-7.56 16.89z"/>
    <path id="path43" d="m175.81 222.22c5.23 5.36 15.48 3.81 22.94-3.42 7.45-7.28 9.21-17.5 3.99-22.86-5.22-5.37-15.48-3.82-22.93 3.45-7.45 7.24-9.21 17.46-4 22.83zm3.64-3.42c3.75 3.88 11.16 2.77 16.52-2.45 5.37-5.26 6.63-12.6 2.89-16.49-3.78-3.85-11.2-2.74-16.53 2.48-5.36 5.22-6.66 12.6-2.88 16.46z"/>
    <path id="path45" d="m195.33 207.53c5.79 2.91 13.79-1.23 17.85-9.29 4.07-8.06 2.63-16.99-3.16-19.91-5.84-2.91-13.83 1.23-17.9 9.33-4.03 8.02-2.62 16.95 3.21 19.87zm1.98-3.82c4.21 2.09 9.97-0.9 12.89-6.73 2.91-5.8 1.9-12.2-2.31-14.33-4.18-2.09-9.94 0.9-12.85 6.7-2.92 5.83-1.91 12.24 2.27 14.36z"/>
    <path id="path47" d="m204.83 191.15c5.8 2.91 13.79-1.23 17.86-9.29s2.62-16.99-3.17-19.91c-5.83-2.91-13.82 1.26-17.89 9.33-4.03 8.02-2.63 16.95 3.2 19.87zm2.02-3.82c4.17 2.09 9.93-0.9 12.85-6.73 2.92-5.8 1.91-12.2-2.27-14.33-4.21-2.09-9.97 0.9-12.89 6.7-2.91 5.83-1.91 12.24 2.31 14.36z"/>
    <path id="path49" d="m212.28 176.53c6.3 1.62 13.25-4.14 15.52-12.85 2.27-8.75-0.97-17.17-7.27-18.79-6.3-1.66-13.25 4.1-15.52 12.85-2.3 8.71 0.97 17.14 7.27 18.79zm1.16-4.17c4.53 1.18 9.53-2.99 11.19-9.26 1.62-6.3-0.72-12.38-5.26-13.53-4.53-1.19-9.53 2.95-11.19 9.25-1.62 6.3 0.72 12.35 5.26 13.54z"/>
    <path id="path51" d="m217.9 158.89c5.98 0.94 11.88-5 13.21-13.28s-2.45-15.77-8.42-16.71c-5.94-0.97-11.88 4.97-13.22 13.25-1.29 8.28 2.45 15.77 8.43 16.74zm0.72-3.96c4.28 0.69 8.53-3.6 9.5-9.57 0.94-5.94-1.76-11.34-6.04-12.03-4.32-0.68-8.57 3.57-9.54 9.54-0.94 5.98 1.76 11.38 6.08 12.06z"/>
    <path id="path53" d="m219.81 141.07c5.58 0.33 10.47-5.72 10.9-13.5 0.4-7.77-3.77-14.33-9.39-14.61-5.58-0.29-10.48 5.76-10.87 13.53-0.43 7.74 3.74 14.29 9.36 14.58zm0.25-3.71c4.03 0.22 7.56-4.14 7.88-9.72 0.29-5.61-2.73-10.33-6.76-10.54-4.04-0.22-7.57 4.14-7.85 9.75-0.33 5.58 2.7 10.3 6.73 10.51z"/>
    <path id="path55" d="m223.7 126.17c5.54-0.83 9.1-7.74 7.95-15.41-1.11-7.7-6.55-13.284-12.1-12.456-5.54 0.828-9.1 7.706-7.99 15.406 1.15 7.71 6.59 13.29 12.14 12.46zm-0.51-3.71c4-0.58 6.59-5.54 5.76-11.09-0.83-5.54-4.72-9.57-8.71-9-4 0.61-6.59 5.58-5.76 11.13 0.83 5.54 4.72 9.57 8.71 8.96z"/>
    <path id="path57" d="m223.44 110.58c5.44-1.37 8.32-8.57 6.45-16.128-1.87-7.524-7.81-12.564-13.25-11.196s-8.32 8.568-6.44 16.128c1.87 7.526 7.81 12.566 13.24 11.196zm-0.82-3.64c3.92-0.97 5.97-6.19 4.64-11.624-1.37-5.436-5.65-9.036-9.58-8.064-3.88 0.972-5.97 6.192-4.64 11.628 1.37 5.44 5.65 9.04 9.58 8.06z"/>
    <path id="path59" d="m220.38 96.324c5.3-1.296 8.07-8.316 6.27-15.624-1.84-7.344-7.6-12.204-12.86-10.872-5.29 1.332-8.1 8.316-6.26 15.624s7.6 12.204 12.85 10.872zm-0.79-3.528c3.78-0.936 5.8-5.976 4.5-11.268-1.33-5.256-5.47-8.784-9.29-7.812-3.78 0.936-5.79 5.976-4.5 11.268 1.33 5.256 5.48 8.784 9.29 7.812z"/>
    <path id="path61" d="m108.24 283.06c8.5-2.45 12.57-14.01 9.15-25.78-3.46-11.77-13.14-19.3-21.603-16.81-8.496 2.48-12.564 14-9.144 25.81 3.456 11.74 13.104 19.26 21.597 16.78zm-1.54-5.66c6.12-1.8 9.03-10.11 6.58-18.57-2.48-8.5-9.46-13.93-15.585-12.13-6.084 1.8-9.036 10.11-6.552 18.61 2.484 8.46 9.437 13.89 15.557 12.09z"/>
    <path id="path63" d="m99.819 259.33c7.701-2.27 11.411-12.74 8.281-23.43-3.13-10.7-11.917-17.54-19.621-15.27-7.704 2.23-11.412 12.74-8.28 23.44 3.132 10.69 11.916 17.53 19.62 15.26zm-1.404-5.15c5.545-1.62 8.205-9.18 5.975-16.88-2.27-7.7-8.603-12.64-14.147-11.02s-8.244 9.18-5.976 16.89c2.268 7.7 8.568 12.63 14.148 11.01z"/>
    <path id="path65" d="m91.899 236.08c7.704-2.24 11.411-12.75 8.281-23.4-3.133-10.73-11.917-17.57-19.621-15.3-7.704 2.26-11.412 12.74-8.28 23.43s11.916 17.53 19.62 15.27zm-1.44-5.15c5.58-1.62 8.244-9.18 5.976-16.89-2.232-7.7-8.568-12.63-14.112-11.01s-8.244 9.21-5.976 16.92c2.232 7.7 8.568 12.63 14.112 10.98z"/>
    <path id="path67" d="m81.747 212.35c6.876-2.01 10.188-11.37 7.416-20.91-2.808-9.54-10.656-15.66-17.532-13.65-6.876 2.02-10.188 11.38-7.416 20.92 2.808 9.54 10.656 15.66 17.532 13.64zm-1.26-4.61c4.968-1.44 7.344-8.17 5.328-15.08-2.016-6.88-7.668-11.27-12.636-9.83-4.932 1.48-7.344 8.21-5.328 15.09 2.016 6.87 7.668 11.3 12.636 9.82z"/>
    <path id="path69" d="m73.827 192.8c6.876-2.01 10.188-11.37 7.38-20.91-2.772-9.54-10.62-15.66-17.496-13.65-6.876 2.02-10.188 11.38-7.416 20.92 2.808 9.54 10.656 15.66 17.532 13.64zm-1.26-4.6c4.932-1.44 7.344-8.21 5.328-15.09-2.016-6.87-7.668-11.27-12.636-9.83-4.932 1.48-7.344 8.21-5.328 15.09 2.016 6.87 7.668 11.3 12.636 9.83z"/>
    <path id="path71" d="m65.007 171.71c6.156-1.8 9.144-10.19 6.624-18.72-2.484-8.57-9.504-14.04-15.696-12.24-6.156 1.8-9.108 10.19-6.624 18.75 2.52 8.54 9.54 14.01 15.696 12.21zm-1.116-4.11c4.428-1.29 6.552-7.34 4.752-13.5-1.8-6.15-6.84-10.11-11.268-8.82-4.464 1.3-6.588 7.35-4.788 13.5 1.8 6.16 6.84 10.12 11.304 8.82z"/>
    <path id="path73" d="m57.627 155.33c6.156-1.8 9.108-10.19 6.624-18.72-2.52-8.57-9.54-14.04-15.696-12.24s-9.108 10.19-6.624 18.75c2.484 8.54 9.504 14.01 15.696 12.21zm-1.152-4.11c4.428-1.29 6.588-7.34 4.788-13.53-1.8-6.12-6.876-10.08-11.304-8.79-4.428 1.3-6.588 7.35-4.788 13.5 1.8 6.16 6.876 10.12 11.304 8.82z"/>
    <path id="path75" d="m50.427 136.32c5.868-1.69 8.676-9.68 6.3-17.78-2.376-8.14-9.036-13.32-14.904-11.63-5.832 1.73-8.64 9.68-6.264 17.82 2.376 8.1 9.036 13.32 14.868 11.59zm-1.08-3.89c4.212-1.26 6.264-6.98 4.536-12.85-1.692-5.83-6.48-9.58-10.728-8.35-4.212 1.22-6.228 6.98-4.536 12.81 1.728 5.87 6.516 9.62 10.728 8.39z"/>
    <path id="path77" d="m44.631 120.48c5.832-1.73 8.64-9.68 6.3-17.82-2.376-8.1-9.036-13.284-14.904-11.592-5.868 1.728-8.676 9.682-6.3 17.822 2.376 8.1 9.036 13.28 14.904 11.59zm-1.08-3.92c4.212-1.23 6.228-6.99 4.536-12.82-1.692-5.832-6.516-9.612-10.728-8.352-4.212 1.224-6.228 6.952-4.536 12.812 1.692 5.84 6.516 9.58 10.728 8.36z"/>
    <path id="path79" d="m37.755 103.02c5.868-1.69 8.676-9.648 6.3-17.784-2.376-8.1-9.036-13.32-14.904-11.592-5.832 1.692-8.64 9.684-6.264 17.784 2.376 8.136 9.036 13.322 14.868 11.592zm-1.08-3.888c4.248-1.224 6.264-6.984 4.536-12.816-1.692-5.868-6.48-9.612-10.728-8.388-4.212 1.26-6.228 6.984-4.536 12.852 1.728 5.832 6.516 9.58 10.728 8.352z"/>
    <path id="path81" stroke="#000" stroke-width=".036" stroke-miterlimit="10" d="m70.479 25.764c0 2.34 2.016 4.212 4.5 4.212s4.464-1.872 4.464-4.212-1.98-4.248-4.464-4.248-4.5 1.908-4.5 4.248z"/>
    <path id="path83" stroke="#000" stroke-width=".036" stroke-miterlimit="10" d="m88.443 32.64c0 2.34 2.016 4.212 4.5 4.212s4.464-1.872 4.464-4.212-1.98-4.248-4.464-4.248-4.5 1.908-4.5 4.248z"/>
    <path id="path85" stroke="#000" stroke-width=".036" stroke-miterlimit="10" d="m103.24 38.976c0 2.34 2.02 4.212 4.5 4.212 2.45 0 4.46-1.872 4.46-4.212s-2.01-4.212-4.46-4.212c-2.48 0-4.5 1.872-4.5 4.212z"/>
    <path id="path87" stroke="#000" stroke-width=".036" stroke-miterlimit="10" d="m119.08 43.728c0 2.34 2.02 4.212 4.5 4.212s4.5-1.872 4.5-4.212-2.02-4.212-4.5-4.212-4.5 1.872-4.5 4.212z"/>
    <path id="path89" stroke="#000" stroke-width=".036" stroke-miterlimit="10" d="m136 47.94c0 2.34 2.02 4.248 4.5 4.248s4.46-1.908 4.46-4.248-1.98-4.212-4.46-4.212-4.5 1.872-4.5 4.212z"/>
    <path id="path91" stroke="#000" stroke-width=".036" stroke-miterlimit="10" d="m152.88 49.524c0 2.34 2.02 4.248 4.5 4.248 2.49 0 4.5-1.908 4.5-4.248 0-2.304-2.01-4.212-4.5-4.212-2.48 0-4.5 1.908-4.5 4.212z"/>
    <path id="path93" stroke="#000" stroke-width=".036" stroke-miterlimit="10" d="m173.51 47.436c0 2.304 2.02 4.212 4.5 4.212 2.45 0 4.46-1.908 4.46-4.212 0-2.34-2.01-4.248-4.46-4.248-2.48 0-4.5 1.908-4.5 4.248z"/>
  </g>
  <metadata>
    <rdf:RDF>
      <cc:Work>
        <dc:format>image/svg+xml</dc:format>
        <dc:type rdf:resource="http://purl.org/dc/dcmitype/StillImage"/>
        <cc:license rdf:resource="http://creativecommons.org/licenses/publicdomain/"/>
        <dc:publisher>
          <cc:Agent rdf:about="http://openclipart.org/">
            <dc:title>Openclipart</dc:title>
          </cc:Agent>
        </dc:publisher>
        <dc:title>Celtic Harp</dc:title>
        <dc:date>2007-11-14T23:56:12</dc:date>
        <dc:description>celtic, celtic, clip art, clipart, colouring book, colouring book, harp, harp, image, instrument, instrument, media, music, music, png, public domain, svg, </dc:description>
        <dc:source>http://openclipart.org/detail/8527/celtic-harp-by-gerald_g-8527</dc:source>
        <dc:creator>
          <cc:Agent>
            <dc:title>Gerald_G</dc:title>
          </cc:Agent>
        </dc:creator>
        <dc:subject>
          <rdf:Bag>
            <rdf:li>celtic</rdf:li>
            <rdf:li>clip art</rdf:li>
            <rdf:li>clipart</rdf:li>
            <rdf:li>colouring book</rdf:li>
            <rdf:li>harp</rdf:li>
            <rdf:li>image</rdf:li>
            <rdf:li>instrument</rdf:li>
            <rdf:li>media</rdf:li>
            <rdf:li>music</rdf:li>
            <rdf:li>png</rdf:li>
            <rdf:li>public domain</rdf:li>
            <rdf:li>svg</rdf:li>
          </rdf:Bag>
        </dc:subject>
      </cc:Work>
      <cc:License rdf:about="http://creativecommons.org/licenses/publicdomain/">
        <cc:permits rdf:resource="http://creativecommons.org/ns#Reproduction"/>
        <cc:permits rdf:resource="http://creativecommons.org/ns#Distribution"/>
        <cc:permits rdf:resource="http://creativecommons.org/ns#DerivativeWorks"/>
      </cc:License>
    </rdf:RDF>
  </metadata>
</svg>
